<svg width="400" height="178.667" viewBox="0 0 300 134" xmlns="http://www.w3.org/2000/svg" xmlns:xlink="http://www.w3.org/1999/xlink" overflow="hidden"><g transform="matrix(0.1 0 0 -0.1 0 134)"><path d="M2604 1311C2490 1242 2543 1050 2676 1050 2805 1050 2859 1226 2755 1308 2719 1336 2647 1338 2604 1311Z" fill="#FFFFFF"/><path d="M2308 1233 2250 1229 2250 1171C2250 1019 2349 846 2475 782 2531 754 2665 740 2710 758 2731 767 2727 769 2677 769 2517 771 2407 928 2407 1153 2407 1235 2406 1240 2386 1238 2374 1237 2339 1235 2308 1233Z" fill="#FFFFFF"/><path d="M1838 983C1850 981 1870 981 1883 983 1895 985 1885 987 1860 987 1835 987 1825 985 1838 983Z" fill="#FFFFFF"/><path d="M1977 961C2127 920 2273 830 2400 700 2542 556 2616 404 2628 232L2635 138 2775 79C2852 47 2917 20 2919 20 2927 20 2907 137 2888 193 2801 463 2524 739 2186 896 2095 937 2004 968 1949 975 1917 979 1926 975 1977 961Z" fill="#FFFFFF"/><path d="M36 418C30 398 10 312 10 306 10 303 30 300 55 300 108 300 107 302 80 188 69 142 60 99 60 93 60 84 82 80 138 80L216 80 240 187 265 295 311 298 357 301 373 360C383 393 390 422 390 425 390 428 311 430 215 430 83 430 38 427 36 418Z" fill="#FFFFFF"/><path d="M381 262C358 169 340 90 340 86 340 83 376 80 419 80L499 80 511 135C518 165 526 190 530 190 533 190 544 167 554 139 564 111 578 86 585 84 591 81 635 80 682 82L768 85 729 153C695 212 693 221 708 226 777 247 815 284 826 338 830 360 826 374 807 396L782 425 602 428 422 431 381 262ZM640 345C650 333 650 324 642 305 632 283 624 280 580 280 526 280 525 282 541 329 551 356 556 360 590 360 611 360 633 353 640 345Z" fill="#FFFFFF"/><path d="M1335 418C1324 383 1310 323 1310 308 1310 293 1319 290 1355 290 1380 290 1400 287 1400 283 1400 278 1389 231 1376 177L1353 79 1433 82 1514 85 1540 190 1565 295 1609 296 1653 297 1671 356C1681 388 1690 418 1690 423 1690 427 1611 430 1515 430 1383 430 1338 427 1335 418Z" fill="#FFFFFF"/><path d="M1685 273C1665 186 1646 107 1644 98 1639 81 1652 80 1819 80L1999 80 2009 117C2015 138 2020 158 2020 163 2020 167 1975 170 1919 170 1829 170 1819 172 1822 188 1825 202 1840 206 1930 210 2031 215 2034 216 2041 240 2045 254 2048 270 2049 275 2050 281 2012 284 1949 282 1849 279 1848 279 1852 302 1855 324 1859 325 1957 328L2059 331 2070 368C2088 433 2096 430 1901 430L1722 430 1685 273Z" fill="#FFFFFF"/><path d="M2121 394C2103 325 2050 99 2050 89 2050 83 2082 80 2127 82L2204 85 2220 140 2236 195 2258 146C2270 119 2280 94 2280 89 2280 84 2323 80 2375 80 2427 80 2470 83 2470 86 2470 89 2454 120 2435 154 2400 218 2399 230 2431 230 2459 230 2519 288 2528 324 2550 408 2523 420 2306 427L2132 433 2121 394ZM2368 327C2374 295 2341 270 2293 270 2246 270 2245 272 2261 319 2272 349 2274 351 2319 348 2354 346 2366 341 2368 327Z" fill="#FFFFFF"/><path d="M990 411C880 377 828 314 822 209 818 147 820 139 843 116 878 82 941 67 1035 72 1187 80 1280 165 1280 296 1280 334 1275 347 1250 370 1234 385 1200 403 1176 409 1126 421 1028 422 990 411ZM1098 308C1120 286 1112 222 1085 195 1035 144 970 174 985 240 999 305 1063 343 1098 308Z" fill="#FFFFFF"/></g></svg>